<svg width="310" height="308" viewBox="0 0 310 308" fill="none" xmlns="http://www.w3.org/2000/svg">
<path opacity="0.4" d="M155 282C225.693 282 283 224.692 283 154C283 83.3076 225.693 26 155 26C84.3077 26 27.0001 83.3076 27.0001 154C27.0001 224.692 84.3077 282 155 282Z" fill="#006f01"/>
<path opacity="0.4" d="M308 154C308 238.5 239.5 307 155 307C70.5005 307 2.00003 238.5 2.00003 154C2.00003 69.5004 70.5005 1 155 1C239.5 1 308 69.5004 308 154Z" stroke="#006f01" strokeWidth="2"/>
<path fill-rule="evenodd" clip-rule="evenodd" d="M53.0926 116.604C66.5293 108.536 81.751 107 96.3248 107.482C98.4072 107.551 100.039 109.296 99.9704 111.378C99.9014 113.46 98.1573 115.093 96.0749 115.024C82.0881 114.56 68.5896 116.1 56.977 123.073C55.1907 124.145 52.8731 123.567 51.8005 121.781C50.7278 119.994 51.3064 117.677 53.0926 116.604Z" fill="url(#paint0_linear_170_10729)"/>
<path fill-rule="evenodd" clip-rule="evenodd" d="M253.18 177.905C254.253 179.692 253.674 182.009 251.888 183.082C238.453 191.149 223.223 192.686 208.651 192.204C206.568 192.135 204.936 190.391 205.005 188.308C205.074 186.226 206.818 184.593 208.9 184.662C222.887 185.125 236.393 183.585 248.004 176.613C249.79 175.54 252.108 176.119 253.18 177.905Z" fill="url(#paint1_linear_170_10729)"/>
<path d="M149.583 221.2H187.902C200.751 221.2 211.169 207.284 211.169 190.114C211.169 172.943 200.751 159.021 187.902 159.021H149.583C157.532 159.021 164.55 164.346 168.743 172.495C171.441 177.982 172.844 184.015 172.844 190.13C172.844 196.244 171.441 202.277 168.743 207.764C164.55 215.892 157.532 221.2 149.583 221.2Z" fill="url(#paint2_linear_170_10729)"/>
<path d="M177.134 170.438C172.456 161.367 164.625 155.428 155.759 155.428H147.195C132.859 155.428 121.234 170.96 121.234 190.115C121.234 209.269 132.859 224.796 147.195 224.801H155.786C164.652 224.801 172.493 218.873 177.161 209.792C180.169 203.67 181.734 196.941 181.734 190.12C181.734 183.299 180.169 176.57 177.161 170.448L177.134 170.438Z" fill="url(#paint3_linear_170_10729)"/>
<path d="M168.473 170.438C163.806 161.383 155.991 155.449 147.141 155.428C132.816 155.428 121.207 170.971 121.207 190.115C121.207 209.258 132.816 224.78 147.141 224.801C155.991 224.801 163.806 218.873 168.473 209.792C171.485 203.671 173.052 196.941 173.052 190.12C173.052 183.299 171.485 176.569 168.473 170.448V170.438Z" fill="url(#paint4_linear_170_10729)"/>
<path d="M150.561 183.718C149.268 185.991 147.105 187.479 144.656 187.479H142.291C138.331 187.479 135.12 183.587 135.12 178.789C135.12 173.99 138.331 170.1 142.291 170.099H144.664C147.113 170.099 149.279 171.584 150.568 173.859C151.399 175.393 151.831 177.079 151.831 178.787C151.831 180.496 151.399 182.182 150.568 183.716L150.561 183.718Z" fill="url(#paint5_linear_170_10729)"/>
<path d="M150.561 207.115C149.268 209.387 147.105 210.875 144.656 210.875H142.291C138.331 210.875 135.12 206.984 135.12 202.185C135.12 197.387 138.331 193.497 142.291 193.495H144.664C147.113 193.495 149.279 194.981 150.568 197.256C151.399 198.789 151.831 200.475 151.831 202.184C151.831 203.893 151.399 205.578 150.568 207.112L150.561 207.115Z" fill="url(#paint6_linear_170_10729)"/>
<path d="M147.918 183.718C146.654 185.987 144.538 187.473 142.142 187.479C138.263 187.479 135.12 183.585 135.12 178.789C135.12 173.993 138.263 170.104 142.142 170.099C144.538 170.099 146.654 171.584 147.918 173.859C148.733 175.392 149.157 177.078 149.157 178.787C149.157 180.496 148.733 182.182 147.918 183.716V183.718Z" fill="#006f01"/>
<path d="M147.918 207.115C146.654 209.383 144.538 210.87 142.142 210.875C138.263 210.875 135.12 206.981 135.12 202.185C135.12 197.389 138.263 193.501 142.142 193.495C144.538 193.495 146.654 194.981 147.918 197.256C148.733 198.789 149.157 200.475 149.157 202.184C149.157 203.893 148.733 205.579 147.918 207.112V207.115Z" fill="#006f01"/>
<path d="M155.398 144.944H117.078C104.23 144.944 93.8066 131.029 93.8066 113.858C93.8066 96.6867 104.23 82.7656 117.078 82.7656H155.398C147.448 82.7656 140.431 88.0905 136.238 96.2394C133.488 101.71 132.08 107.757 132.131 113.879C132.08 120 133.488 126.045 136.238 131.514C140.431 139.619 147.448 144.944 155.398 144.944Z" fill="url(#paint7_linear_170_10729)"/>
<path d="M127.842 94.1992C132.525 85.1287 140.356 79.1895 149.222 79.1895H157.813C172.149 79.1895 183.774 94.722 183.774 113.876C183.774 133.031 172.149 148.558 157.813 148.563H149.222C140.356 148.563 132.514 142.635 127.842 133.553C124.78 127.449 123.211 120.705 123.266 113.876C123.211 107.047 124.78 100.303 127.842 94.1992V94.1992Z" fill="url(#paint8_linear_170_10729)"/>
<path d="M136.502 94.1992C141.175 85.1449 148.984 79.211 157.839 79.1895C172.165 79.1895 183.774 94.7328 183.774 113.876C183.774 133.02 172.165 148.542 157.839 148.558C148.984 148.558 141.175 142.629 136.502 133.553C133.44 127.449 131.872 120.705 131.927 113.876C131.872 107.047 133.44 100.303 136.502 94.1992Z" fill="url(#paint9_linear_170_10729)"/>
<path d="M160.071 107.941C162.872 107.941 165.142 104.789 165.142 100.902C165.142 97.0146 162.872 93.8633 160.071 93.8633C157.27 93.8633 154.999 97.0146 154.999 100.902C154.999 104.789 157.27 107.941 160.071 107.941Z" fill="url(#paint10_linear_170_10729)"/>
<path d="M160.187 109.27C163.694 109.27 166.537 105.529 166.537 100.914C166.537 96.2995 163.694 92.5586 160.187 92.5586C156.68 92.5586 153.837 96.2995 153.837 100.914C153.837 105.529 156.68 109.27 160.187 109.27Z" fill="#006e01"/>
<path d="M160.187 136.008C163.694 136.008 166.537 132.267 166.537 127.652C166.537 123.038 163.694 119.297 160.187 119.297C156.68 119.297 153.837 123.038 153.837 127.652C153.837 132.267 156.68 136.008 160.187 136.008Z" fill="#006e01"/>
<path d="M84.4223 160.931C84.7683 159.498 86.8068 159.498 87.1528 160.931L88.3172 165.754C88.4408 166.267 88.8407 166.667 89.3528 166.79L94.1764 167.955C95.6095 168.3 95.6095 170.339 94.1764 170.685L89.3528 171.849C88.8407 171.973 88.4408 172.373 88.3172 172.885L87.1528 177.709C86.8068 179.142 84.7683 179.142 84.4223 177.709L83.258 172.885C83.1343 172.373 82.7345 171.973 82.2223 171.849L77.3988 170.685C75.9656 170.339 75.9656 168.3 77.3988 167.955L82.2223 166.79C82.7345 166.667 83.1343 166.267 83.258 165.754L84.4223 160.931Z" fill="white"/>
<path d="M160.071 107.941C162.872 107.941 165.142 104.789 165.142 100.902C165.142 97.0146 162.872 93.8633 160.071 93.8633C157.27 93.8633 154.999 97.0146 154.999 100.902C154.999 104.789 157.27 107.941 160.071 107.941Z" fill="url(#paint11_linear_170_10729)"/>
<path d="M160.071 134.677C162.872 134.677 165.142 131.526 165.142 127.638C165.142 123.751 162.872 120.6 160.071 120.6C157.27 120.6 154.999 123.751 154.999 127.638C154.999 131.526 157.27 134.677 160.071 134.677Z" fill="url(#paint12_linear_170_10729)"/>
<path d="M200.873 74.3216C201.219 72.8884 203.258 72.8884 203.604 74.3216L204.768 79.1451C204.892 79.6573 205.292 80.0571 205.804 80.1808L210.627 81.3452C212.061 81.6911 212.061 83.7296 210.627 84.0756L205.804 85.24C205.292 85.3636 204.892 85.7635 204.768 86.2756L203.604 91.0992C203.258 92.5323 201.219 92.5323 200.873 91.0992L199.709 86.2756C199.585 85.7635 199.186 85.3636 198.673 85.24L193.85 84.0756C192.417 83.7296 192.417 81.6911 193.85 81.3452L198.673 80.1808C199.186 80.0571 199.585 79.6573 199.709 79.1451L200.873 74.3216Z" fill="white"/>
<path d="M300.085 95.4816C300.975 94.9248 302.012 95.9403 301.474 96.8417L300.513 98.4526C300.321 98.7747 300.325 99.1774 300.524 99.4954L301.519 101.086C302.076 101.975 301.06 103.013 300.159 102.475L298.548 101.514C298.226 101.321 297.823 101.326 297.505 101.525L295.915 102.52C295.025 103.076 293.988 102.061 294.526 101.159L295.487 99.5486C295.679 99.2264 295.675 98.8238 295.476 98.5058L294.481 96.9156C293.924 96.0257 294.94 94.9885 295.841 95.5264L297.452 96.4876C297.774 96.6798 298.177 96.6755 298.495 96.4766L300.085 95.4816Z" fill="white"/>
<circle cx="85.788" cy="134.794" r="3.2185" fill="white" stroke="url(#paint13_linear_170_10729)" strokeWidth="1.75554"/>
<circle cx="218.761" cy="209.626" r="3.2185" fill="white" stroke="url(#paint14_linear_170_10729)" strokeWidth="1.75554"/>
<path d="M215.706 156.643C215.483 155.77 216.289 154.983 217.156 155.227L223.011 156.872C223.878 157.116 224.156 158.207 223.512 158.836L219.16 163.084C218.515 163.713 217.431 163.409 217.208 162.535L215.706 156.643Z" fill="url(#paint15_linear_170_10729)"/>
<path d="M110.336 213.217C111.209 212.995 111.995 213.802 111.75 214.669L110.097 220.522C109.852 221.389 108.76 221.666 108.132 221.02L103.89 216.662C103.262 216.017 103.568 214.933 104.441 214.712L110.336 213.217Z" fill="url(#paint16_linear_170_10729)"/>
<path d="M236.557 123.757C235.996 127.984 234.373 131.999 231.838 135.428C229.304 138.857 225.942 141.587 222.066 143.364C218.19 145.141 213.926 145.905 209.674 145.587C205.422 145.268 201.321 143.877 197.753 141.542L188.051 144.846C187.757 144.944 187.44 144.956 187.14 144.879C186.839 144.803 186.566 144.641 186.355 144.414C186.143 144.186 186.002 143.903 185.947 143.597C185.893 143.292 185.927 142.977 186.047 142.69L189.949 133.377C187.885 129.923 186.678 126.024 186.429 122.008C186.179 117.992 186.895 113.974 188.516 110.291C190.137 106.608 192.616 103.366 195.746 100.837C198.876 98.3076 202.566 96.5643 206.507 95.7526C210.448 94.9409 214.527 95.0844 218.401 96.1712C222.276 97.2579 225.834 99.2563 228.778 101.999C231.722 104.742 233.967 108.15 235.325 111.938C236.683 115.726 237.115 119.784 236.584 123.773L236.557 123.757Z" fill="#006e01"/>
<circle cx="133.2" cy="73.2603" r="3.2185" fill="white" stroke="url(#paint17_linear_170_10729)" strokeWidth="1.75554"/>
<circle cx="102.096" cy="10.0963" r="3.2185" fill="white" stroke="url(#paint18_linear_170_10729)" strokeWidth="1.75554"/>
<path d="M215.13 106.768L214.52 125.592H209.076L208.466 106.768H215.13ZM211.791 134.283C210.846 134.283 210.034 133.947 209.354 133.276C208.683 132.605 208.347 131.792 208.347 130.839C208.347 129.902 208.683 129.103 209.354 128.441C210.034 127.769 210.846 127.434 211.791 127.434C212.701 127.434 213.5 127.769 214.189 128.441C214.887 129.103 215.236 129.902 215.236 130.839C215.236 131.474 215.072 132.053 214.746 132.574C214.428 133.095 214.008 133.51 213.487 133.819C212.975 134.128 212.41 134.283 211.791 134.283Z" fill="white"/>
<rect x="113.73" y="172.775" width="33.4224" height="12.0321" rx="6.01604" fill="url(#paint19_linear_170_10729)"/>
<rect x="113.73" y="196.17" width="33.4224" height="12.0321" rx="6.01604" fill="url(#paint20_linear_170_10729)"/>
<path d="M11.3697 209.949C11.4132 209.171 12.2825 208.732 12.9344 209.159L28.337 219.237C28.9889 219.664 28.9346 220.636 28.2392 220.988L11.8094 229.287C11.1139 229.639 10.299 229.105 10.3424 228.327L11.3697 209.949Z" fill="url(#paint21_linear_170_10729)"/>
<path d="M15.9331 218.98C15.9766 218.202 16.8459 217.763 17.4979 218.19L32.9004 228.269C33.5524 228.695 33.4981 229.668 32.8026 230.019L16.3728 238.319C15.6774 238.67 14.8624 238.137 14.9059 237.359L15.9331 218.98Z" fill="url(#paint22_linear_170_10729)"/>
<path d="M28.0926 251.524C28.1052 251.576 28.1703 251.599 28.2101 251.562C30.3205 249.618 29.5208 246.013 29.3552 245.365C29.3428 245.316 29.3822 245.271 29.4313 245.283C29.7373 245.356 30.6387 245.683 30.9687 247.043C30.9816 247.095 31.046 247.117 31.086 247.081C32.3093 245.962 32.9265 244.238 32.5724 242.543C32.0304 239.949 29.4103 238.302 26.7202 238.864C24.0301 239.426 22.2887 241.984 22.8307 244.578C23.6181 248.347 27.3498 248.413 28.0926 251.524Z" fill="white" stroke="white" strokeWidth="1.06629"/>
<defs>
<linearGradient id="paint0_linear_170_10729" x1="94.3447" y1="123.72" x2="62.3446" y2="92.2704" gradientUnits="userSpaceOnUse">
<stop stop-color="#006f01"/>
<stop offset="1" stop-color="#F7F7FF"/>
</linearGradient>
<linearGradient id="paint1_linear_170_10729" x1="208.676" y1="197.699" x2="239.552" y2="218.486" gradientUnits="userSpaceOnUse">
<stop stop-color="#006f01"/>
<stop offset="1" stop-color="#F7F7FF"/>
</linearGradient>
<linearGradient id="paint2_linear_170_10729" x1="202.126" y1="202.305" x2="162.917" y2="128.283" gradientUnits="userSpaceOnUse">
<stop stop-color="#006f01"/>
<stop offset="1" stop-color="#F7F7FF"/>
</linearGradient>
<linearGradient id="paint3_linear_170_10729" x1="172.85" y1="203.72" x2="126.133" y2="126.065" gradientUnits="userSpaceOnUse">
<stop stop-color="#006f01"/>
<stop offset="1" stop-color="#F7F7FF"/>
</linearGradient>
<linearGradient id="paint4_linear_170_10729" x1="125.738" y1="194.612" x2="173.195" y2="194.278" gradientUnits="userSpaceOnUse">
<stop stop-color="#CCE2CC"/>
<stop offset="1" stop-color="#CCE2CC"/>
</linearGradient>
<linearGradient id="paint5_linear_170_10729" x1="154.505" y1="183.468" x2="139.641" y2="162.715" gradientUnits="userSpaceOnUse">
<stop stop-color="#006f01"/>
<stop offset="1" stop-color="#F7F7FF"/>
</linearGradient>
<linearGradient id="paint6_linear_170_10729" x1="154.505" y1="206.864" x2="139.641" y2="186.111" gradientUnits="userSpaceOnUse">
<stop stop-color="#006f01"/>
<stop offset="1" stop-color="#F7F7FF"/>
</linearGradient>
<linearGradient id="paint7_linear_170_10729" x1="110.053" y1="147.786" x2="107.147" y2="52.0241" gradientUnits="userSpaceOnUse">
<stop stop-color="#006f01"/>
<stop offset="1" stop-color="#F7F7FF"/>
</linearGradient>
<linearGradient id="paint8_linear_170_10729" x1="159.519" y1="133.411" x2="146.483" y2="47.8884" gradientUnits="userSpaceOnUse">
<stop stop-color="#006f01"/>
<stop offset="1" stop-color="#F7F7FF"/>
</linearGradient>
<linearGradient id="paint9_linear_170_10729" x1="136.457" y1="118.371" x2="183.917" y2="118.037" gradientUnits="userSpaceOnUse">
<stop stop-color="#CCE2CC"/>
<stop offset="1" stop-color="#CCE2CC"/>
</linearGradient>
<linearGradient id="paint10_linear_170_10729" x1="150.158" y1="108.202" x2="189.735" y2="105.212" gradientUnits="userSpaceOnUse">
<stop stop-color="#006f01"/>
<stop offset="1" stop-color="#F7F7FF"/>
</linearGradient>
<linearGradient id="paint11_linear_170_10729" x1="156.51" y1="95.57" x2="193.316" y2="105.954" gradientUnits="userSpaceOnUse">
<stop stop-color="#006f01"/>
<stop offset="1" stop-color="#F7F7FF"/>
</linearGradient>
<linearGradient id="paint12_linear_170_10729" x1="156.51" y1="122.306" x2="193.316" y2="132.691" gradientUnits="userSpaceOnUse">
<stop stop-color="#006f01"/>
<stop offset="1" stop-color="#F7F7FF"/>
</linearGradient>
<linearGradient id="paint13_linear_170_10729" x1="88.6813" y1="136.4" x2="83.5431" y2="126.606" gradientUnits="userSpaceOnUse">
<stop stop-color="#006f01"/>
<stop offset="1" stop-color="#F7F7FF"/>
</linearGradient>
<linearGradient id="paint14_linear_170_10729" x1="221.655" y1="211.232" x2="216.517" y2="201.439" gradientUnits="userSpaceOnUse">
<stop stop-color="#006f01"/>
<stop offset="1" stop-color="#F7F7FF"/>
</linearGradient>
<linearGradient id="paint15_linear_170_10729" x1="223.853" y1="157.622" x2="208.828" y2="152.736" gradientUnits="userSpaceOnUse">
<stop stop-color="#006f01"/>
<stop offset="1" stop-color="#F7F7FF"/>
</linearGradient>
<linearGradient id="paint16_linear_170_10729" x1="109.346" y1="221.363" x2="114.251" y2="206.344" gradientUnits="userSpaceOnUse">
<stop stop-color="#006f01"/>
<stop offset="1" stop-color="#F7F7FF"/>
</linearGradient>
<linearGradient id="paint17_linear_170_10729" x1="136.093" y1="74.8671" x2="130.955" y2="65.0733" gradientUnits="userSpaceOnUse">
<stop stop-color="#006f01"/>
<stop offset="1" stop-color="#F7F7FF"/>
</linearGradient>
<linearGradient id="paint18_linear_170_10729" x1="104.99" y1="11.703" x2="99.8513" y2="1.90921" gradientUnits="userSpaceOnUse">
<stop stop-color="#006f01"/>
<stop offset="1" stop-color="#F7F7FF"/>
</linearGradient>
<linearGradient id="paint19_linear_170_10729" x1="142.244" y1="181.151" x2="122.559" y2="161.536" gradientUnits="userSpaceOnUse">
<stop stop-color="#006f01"/>
<stop offset="1" stop-color="#F7F7FF"/>
</linearGradient>
<linearGradient id="paint20_linear_170_10729" x1="142.244" y1="204.546" x2="138.899" y2="186.835" gradientUnits="userSpaceOnUse">
<stop stop-color="#006f01"/>
<stop offset="1" stop-color="#F7F7FF"/>
</linearGradient>
<linearGradient id="paint21_linear_170_10729" x1="24.0041" y1="217.011" x2="4.52389" y2="201.55" gradientUnits="userSpaceOnUse">
<stop stop-color="#006f01"/>
<stop offset="1" stop-color="#F7F7FF"/>
</linearGradient>
<linearGradient id="paint22_linear_170_10729" x1="28.5676" y1="226.042" x2="9.08735" y2="210.581" gradientUnits="userSpaceOnUse">
<stop stop-color="#006f01"/>
<stop offset="1" stop-color="#F7F7FF"/>
</linearGradient>
</defs>
</svg>
